<?xml version="1.0" encoding="UTF-8"?><svg xmlns="http://www.w3.org/2000/svg" xmlns:xlink="http://www.w3.org/1999/xlink" stroke-dasharray="none" shape-rendering="auto" font-family="'Dialog'" width="1592" text-rendering="auto" fill-opacity="1" contentScriptType="text/ecmascript" color-interpolation="auto" color-rendering="auto" preserveAspectRatio="xMidYMid meet" font-size="12" fill="black" stroke="black" image-rendering="auto" stroke-miterlimit="10" zoomAndPan="magnify" version="1.0" stroke-linecap="square" stroke-linejoin="miter" contentStyleType="text/css" font-style="normal" height="605" stroke-width="1" stroke-dashoffset="0" font-weight="normal" stroke-opacity="1">
<!--Generated by the Batik Graphics2D SVG Generator-->
<defs id="genericDefs"/>
<g>
<defs id="defs1">
<clipPath clipPathUnits="userSpaceOnUse" id="clipPath1">
<path d="M49 9 L1543 9 L1543 568 L49 568 L49 9 Z"/>
</clipPath>
<clipPath clipPathUnits="userSpaceOnUse" id="clipPath2">
<path d="M-1 -1 L1593 -1 L1593 606 L-1 606 L-1 -1 Z"/>
</clipPath>
<clipPath clipPathUnits="userSpaceOnUse" id="clipPath3">
<path d="M49 566 L1543 566 L1543 606 L49 606 L49 566 Z"/>
</clipPath>
</defs>
<g font-size="15" fill="white" text-rendering="geometricPrecision" font-family="'Ubuntu'" stroke-linejoin="round" stroke="white" stroke-width="0" stroke-miterlimit="0">
<rect x="50" y="10" clip-path="url(#clipPath1)" width="1492" height="557" stroke="none"/>
</g>
<g font-size="15" stroke-linecap="butt" fill="rgb(204,204,204)" text-rendering="geometricPrecision" font-family="'Ubuntu'" stroke-dasharray="3,3" stroke="rgb(204,204,204)">
<line clip-path="url(#clipPath1)" fill="none" x1="50" x2="1542" y1="567" y2="567"/>
<line clip-path="url(#clipPath1)" fill="none" x1="50" x2="1542" y1="498" y2="498"/>
<line clip-path="url(#clipPath1)" fill="none" x1="50" x2="1542" y1="429" y2="429"/>
<line clip-path="url(#clipPath1)" fill="none" x1="50" x2="1542" y1="361" y2="361"/>
<line clip-path="url(#clipPath1)" fill="none" x1="50" x2="1542" y1="292" y2="292"/>
<line clip-path="url(#clipPath1)" fill="none" x1="50" x2="1542" y1="223" y2="223"/>
<line clip-path="url(#clipPath1)" fill="none" x1="50" x2="1542" y1="155" y2="155"/>
<line clip-path="url(#clipPath1)" fill="none" x1="50" x2="1542" y1="86" y2="86"/>
<line clip-path="url(#clipPath1)" fill="none" x1="50" x2="1542" y1="17" y2="17"/>
<rect x="1523" y="63" clip-path="url(#clipPath1)" fill="teal" width="9" height="503" stroke="none"/>
<rect x="1523" y="63" clip-path="url(#clipPath1)" fill="none" width="9" stroke-dasharray="none" height="503"/>
<rect x="1508" y="63" clip-path="url(#clipPath1)" fill="rgb(160,0,0)" width="9" stroke-dasharray="none" height="503" stroke="none"/>
<rect x="1508" y="63" clip-path="url(#clipPath1)" fill="none" width="9" stroke-dasharray="none" height="503"/>
<rect x="1494" y="63" clip-path="url(#clipPath1)" fill="rgb(169,169,169)" width="9" stroke-dasharray="none" height="503" stroke="none"/>
<rect x="1494" y="63" clip-path="url(#clipPath1)" fill="none" width="9" stroke-dasharray="none" height="503"/>
<rect x="1480" y="63" clip-path="url(#clipPath1)" fill="green" width="9" stroke-dasharray="none" height="503" stroke="none"/>
<rect x="1480" y="63" clip-path="url(#clipPath1)" fill="none" width="9" stroke-dasharray="none" height="503"/>
<rect x="1466" y="60" clip-path="url(#clipPath1)" fill="rgb(255,165,0)" width="9" stroke-dasharray="none" height="506" stroke="none"/>
<rect x="1466" y="60" clip-path="url(#clipPath1)" fill="none" width="9" stroke-dasharray="none" height="506"/>
<rect x="1451" y="60" clip-path="url(#clipPath1)" fill="rgb(0,100,0)" width="9" stroke-dasharray="none" height="506" stroke="none"/>
<rect x="1451" y="60" clip-path="url(#clipPath1)" fill="none" width="9" stroke-dasharray="none" height="506"/>
<rect x="1437" y="60" clip-path="url(#clipPath1)" fill="rgb(238,0,0)" width="9" stroke-dasharray="none" height="506" stroke="none"/>
<rect x="1437" y="60" clip-path="url(#clipPath1)" fill="none" width="9" stroke-dasharray="none" height="506"/>
<rect x="1423" y="60" clip-path="url(#clipPath1)" fill="rgb(0,0,139)" width="9" stroke-dasharray="none" height="506" stroke="none"/>
<rect x="1423" y="60" clip-path="url(#clipPath1)" fill="none" width="9" stroke-dasharray="none" height="506"/>
<rect x="1386" y="63" clip-path="url(#clipPath1)" fill="teal" width="9" stroke-dasharray="none" height="503" stroke="none"/>
<rect x="1386" y="63" clip-path="url(#clipPath1)" fill="none" width="9" stroke-dasharray="none" height="503"/>
<rect x="1372" y="63" clip-path="url(#clipPath1)" fill="rgb(160,0,0)" width="9" stroke-dasharray="none" height="503" stroke="none"/>
<rect x="1372" y="63" clip-path="url(#clipPath1)" fill="none" width="9" stroke-dasharray="none" height="503"/>
<rect x="1358" y="63" clip-path="url(#clipPath1)" fill="rgb(169,169,169)" width="9" stroke-dasharray="none" height="503" stroke="none"/>
<rect x="1358" y="63" clip-path="url(#clipPath1)" fill="none" width="9" stroke-dasharray="none" height="503"/>
<rect x="1343" y="63" clip-path="url(#clipPath1)" fill="green" width="9" stroke-dasharray="none" height="503" stroke="none"/>
<rect x="1343" y="63" clip-path="url(#clipPath1)" fill="none" width="9" stroke-dasharray="none" height="503"/>
<rect x="1329" y="60" clip-path="url(#clipPath1)" fill="rgb(255,165,0)" width="9" stroke-dasharray="none" height="506" stroke="none"/>
<rect x="1329" y="60" clip-path="url(#clipPath1)" fill="none" width="9" stroke-dasharray="none" height="506"/>
<rect x="1315" y="60" clip-path="url(#clipPath1)" fill="rgb(0,100,0)" width="9" stroke-dasharray="none" height="506" stroke="none"/>
<rect x="1315" y="60" clip-path="url(#clipPath1)" fill="none" width="9" stroke-dasharray="none" height="506"/>
<rect x="1301" y="60" clip-path="url(#clipPath1)" fill="rgb(238,0,0)" width="9" stroke-dasharray="none" height="506" stroke="none"/>
<rect x="1301" y="60" clip-path="url(#clipPath1)" fill="none" width="9" stroke-dasharray="none" height="506"/>
<rect x="1287" y="60" clip-path="url(#clipPath1)" fill="rgb(0,0,139)" width="9" stroke-dasharray="none" height="506" stroke="none"/>
<rect x="1287" y="60" clip-path="url(#clipPath1)" fill="none" width="9" stroke-dasharray="none" height="506"/>
<rect x="1250" y="63" clip-path="url(#clipPath1)" fill="teal" width="9" stroke-dasharray="none" height="503" stroke="none"/>
<rect x="1250" y="63" clip-path="url(#clipPath1)" fill="none" width="9" stroke-dasharray="none" height="503"/>
<rect x="1236" y="63" clip-path="url(#clipPath1)" fill="rgb(160,0,0)" width="9" stroke-dasharray="none" height="503" stroke="none"/>
<rect x="1236" y="63" clip-path="url(#clipPath1)" fill="none" width="9" stroke-dasharray="none" height="503"/>
<rect x="1221" y="63" clip-path="url(#clipPath1)" fill="rgb(169,169,169)" width="9" stroke-dasharray="none" height="503" stroke="none"/>
<rect x="1221" y="63" clip-path="url(#clipPath1)" fill="none" width="9" stroke-dasharray="none" height="503"/>
<rect x="1207" y="63" clip-path="url(#clipPath1)" fill="green" width="9" stroke-dasharray="none" height="503" stroke="none"/>
<rect x="1207" y="63" clip-path="url(#clipPath1)" fill="none" width="9" stroke-dasharray="none" height="503"/>
<rect x="1193" y="60" clip-path="url(#clipPath1)" fill="rgb(255,165,0)" width="9" stroke-dasharray="none" height="506" stroke="none"/>
<rect x="1193" y="60" clip-path="url(#clipPath1)" fill="none" width="9" stroke-dasharray="none" height="506"/>
<rect x="1179" y="60" clip-path="url(#clipPath1)" fill="rgb(0,100,0)" width="9" stroke-dasharray="none" height="506" stroke="none"/>
<rect x="1179" y="60" clip-path="url(#clipPath1)" fill="none" width="9" stroke-dasharray="none" height="506"/>
<rect x="1164" y="60" clip-path="url(#clipPath1)" fill="rgb(238,0,0)" width="9" stroke-dasharray="none" height="506" stroke="none"/>
<rect x="1164" y="60" clip-path="url(#clipPath1)" fill="none" width="9" stroke-dasharray="none" height="506"/>
<rect x="1150" y="60" clip-path="url(#clipPath1)" fill="rgb(0,0,139)" width="9" stroke-dasharray="none" height="506" stroke="none"/>
<rect x="1150" y="60" clip-path="url(#clipPath1)" fill="none" width="9" stroke-dasharray="none" height="506"/>
<rect x="1113" y="63" clip-path="url(#clipPath1)" fill="teal" width="9" stroke-dasharray="none" height="503" stroke="none"/>
<rect x="1113" y="63" clip-path="url(#clipPath1)" fill="none" width="9" stroke-dasharray="none" height="503"/>
<rect x="1099" y="63" clip-path="url(#clipPath1)" fill="rgb(160,0,0)" width="9" stroke-dasharray="none" height="503" stroke="none"/>
<rect x="1099" y="63" clip-path="url(#clipPath1)" fill="none" width="9" stroke-dasharray="none" height="503"/>
<rect x="1085" y="63" clip-path="url(#clipPath1)" fill="rgb(169,169,169)" width="9" stroke-dasharray="none" height="503" stroke="none"/>
<rect x="1085" y="63" clip-path="url(#clipPath1)" fill="none" width="9" stroke-dasharray="none" height="503"/>
<rect x="1071" y="63" clip-path="url(#clipPath1)" fill="green" width="9" stroke-dasharray="none" height="503" stroke="none"/>
<rect x="1071" y="63" clip-path="url(#clipPath1)" fill="none" width="9" stroke-dasharray="none" height="503"/>
<rect x="1056" y="60" clip-path="url(#clipPath1)" fill="rgb(255,165,0)" width="9" stroke-dasharray="none" height="506" stroke="none"/>
<rect x="1056" y="60" clip-path="url(#clipPath1)" fill="none" width="9" stroke-dasharray="none" height="506"/>
<rect x="1042" y="60" clip-path="url(#clipPath1)" fill="rgb(0,100,0)" width="9" stroke-dasharray="none" height="506" stroke="none"/>
<rect x="1042" y="60" clip-path="url(#clipPath1)" fill="none" width="9" stroke-dasharray="none" height="506"/>
<rect x="1028" y="60" clip-path="url(#clipPath1)" fill="rgb(238,0,0)" width="9" stroke-dasharray="none" height="506" stroke="none"/>
<rect x="1028" y="60" clip-path="url(#clipPath1)" fill="none" width="9" stroke-dasharray="none" height="506"/>
<rect x="1014" y="60" clip-path="url(#clipPath1)" fill="rgb(0,0,139)" width="9" stroke-dasharray="none" height="506" stroke="none"/>
<rect x="1014" y="60" clip-path="url(#clipPath1)" fill="none" width="9" stroke-dasharray="none" height="506"/>
<rect x="977" y="63" clip-path="url(#clipPath1)" fill="teal" width="9" stroke-dasharray="none" height="503" stroke="none"/>
<rect x="977" y="63" clip-path="url(#clipPath1)" fill="none" width="9" stroke-dasharray="none" height="503"/>
<rect x="963" y="63" clip-path="url(#clipPath1)" fill="rgb(160,0,0)" width="9" stroke-dasharray="none" height="503" stroke="none"/>
<rect x="963" y="63" clip-path="url(#clipPath1)" fill="none" width="9" stroke-dasharray="none" height="503"/>
<rect x="948" y="63" clip-path="url(#clipPath1)" fill="rgb(169,169,169)" width="9" stroke-dasharray="none" height="503" stroke="none"/>
<rect x="948" y="63" clip-path="url(#clipPath1)" fill="none" width="9" stroke-dasharray="none" height="503"/>
<rect x="934" y="63" clip-path="url(#clipPath1)" fill="green" width="9" stroke-dasharray="none" height="503" stroke="none"/>
<rect x="934" y="63" clip-path="url(#clipPath1)" fill="none" width="9" stroke-dasharray="none" height="503"/>
<rect x="920" y="60" clip-path="url(#clipPath1)" fill="rgb(255,165,0)" width="9" stroke-dasharray="none" height="506" stroke="none"/>
<rect x="920" y="60" clip-path="url(#clipPath1)" fill="none" width="9" stroke-dasharray="none" height="506"/>
<rect x="906" y="60" clip-path="url(#clipPath1)" fill="rgb(0,100,0)" width="9" stroke-dasharray="none" height="506" stroke="none"/>
<rect x="906" y="60" clip-path="url(#clipPath1)" fill="none" width="9" stroke-dasharray="none" height="506"/>
<rect x="892" y="60" clip-path="url(#clipPath1)" fill="rgb(238,0,0)" width="9" stroke-dasharray="none" height="506" stroke="none"/>
<rect x="892" y="60" clip-path="url(#clipPath1)" fill="none" width="9" stroke-dasharray="none" height="506"/>
<rect x="877" y="60" clip-path="url(#clipPath1)" fill="rgb(0,0,139)" width="9" stroke-dasharray="none" height="506" stroke="none"/>
<rect x="877" y="60" clip-path="url(#clipPath1)" fill="none" width="9" stroke-dasharray="none" height="506"/>
<rect x="841" y="63" clip-path="url(#clipPath1)" fill="teal" width="9" stroke-dasharray="none" height="503" stroke="none"/>
<rect x="841" y="63" clip-path="url(#clipPath1)" fill="none" width="9" stroke-dasharray="none" height="503"/>
<rect x="826" y="63" clip-path="url(#clipPath1)" fill="rgb(160,0,0)" width="9" stroke-dasharray="none" height="503" stroke="none"/>
<rect x="826" y="63" clip-path="url(#clipPath1)" fill="none" width="9" stroke-dasharray="none" height="503"/>
<rect x="812" y="63" clip-path="url(#clipPath1)" fill="rgb(169,169,169)" width="9" stroke-dasharray="none" height="503" stroke="none"/>
<rect x="812" y="63" clip-path="url(#clipPath1)" fill="none" width="9" stroke-dasharray="none" height="503"/>
<rect x="798" y="63" clip-path="url(#clipPath1)" fill="green" width="9" stroke-dasharray="none" height="503" stroke="none"/>
<rect x="798" y="63" clip-path="url(#clipPath1)" fill="none" width="9" stroke-dasharray="none" height="503"/>
<rect x="784" y="60" clip-path="url(#clipPath1)" fill="rgb(255,165,0)" width="9" stroke-dasharray="none" height="506" stroke="none"/>
<rect x="784" y="60" clip-path="url(#clipPath1)" fill="none" width="9" stroke-dasharray="none" height="506"/>
<rect x="769" y="60" clip-path="url(#clipPath1)" fill="rgb(0,100,0)" width="9" stroke-dasharray="none" height="506" stroke="none"/>
<rect x="769" y="60" clip-path="url(#clipPath1)" fill="none" width="9" stroke-dasharray="none" height="506"/>
<rect x="755" y="60" clip-path="url(#clipPath1)" fill="rgb(238,0,0)" width="9" stroke-dasharray="none" height="506" stroke="none"/>
<rect x="755" y="60" clip-path="url(#clipPath1)" fill="none" width="9" stroke-dasharray="none" height="506"/>
<rect x="741" y="60" clip-path="url(#clipPath1)" fill="rgb(0,0,139)" width="9" stroke-dasharray="none" height="506" stroke="none"/>
<rect x="741" y="60" clip-path="url(#clipPath1)" fill="none" width="9" stroke-dasharray="none" height="506"/>
<rect x="704" y="63" clip-path="url(#clipPath1)" fill="teal" width="9" stroke-dasharray="none" height="503" stroke="none"/>
<rect x="704" y="63" clip-path="url(#clipPath1)" fill="none" width="9" stroke-dasharray="none" height="503"/>
<rect x="690" y="63" clip-path="url(#clipPath1)" fill="rgb(160,0,0)" width="9" stroke-dasharray="none" height="503" stroke="none"/>
<rect x="690" y="63" clip-path="url(#clipPath1)" fill="none" width="9" stroke-dasharray="none" height="503"/>
<rect x="676" y="63" clip-path="url(#clipPath1)" fill="rgb(169,169,169)" width="9" stroke-dasharray="none" height="503" stroke="none"/>
<rect x="676" y="63" clip-path="url(#clipPath1)" fill="none" width="9" stroke-dasharray="none" height="503"/>
<rect x="661" y="63" clip-path="url(#clipPath1)" fill="green" width="9" stroke-dasharray="none" height="503" stroke="none"/>
<rect x="661" y="63" clip-path="url(#clipPath1)" fill="none" width="9" stroke-dasharray="none" height="503"/>
<rect x="647" y="60" clip-path="url(#clipPath1)" fill="rgb(255,165,0)" width="9" stroke-dasharray="none" height="506" stroke="none"/>
<rect x="647" y="60" clip-path="url(#clipPath1)" fill="none" width="9" stroke-dasharray="none" height="506"/>
<rect x="633" y="60" clip-path="url(#clipPath1)" fill="rgb(0,100,0)" width="9" stroke-dasharray="none" height="506" stroke="none"/>
<rect x="633" y="60" clip-path="url(#clipPath1)" fill="none" width="9" stroke-dasharray="none" height="506"/>
<rect x="619" y="60" clip-path="url(#clipPath1)" fill="rgb(238,0,0)" width="9" stroke-dasharray="none" height="506" stroke="none"/>
<rect x="619" y="60" clip-path="url(#clipPath1)" fill="none" width="9" stroke-dasharray="none" height="506"/>
<rect x="605" y="60" clip-path="url(#clipPath1)" fill="rgb(0,0,139)" width="9" stroke-dasharray="none" height="506" stroke="none"/>
<rect x="605" y="60" clip-path="url(#clipPath1)" fill="none" width="9" stroke-dasharray="none" height="506"/>
<rect x="568" y="63" clip-path="url(#clipPath1)" fill="teal" width="9" stroke-dasharray="none" height="503" stroke="none"/>
<rect x="568" y="63" clip-path="url(#clipPath1)" fill="none" width="9" stroke-dasharray="none" height="503"/>
<rect x="554" y="63" clip-path="url(#clipPath1)" fill="rgb(160,0,0)" width="9" stroke-dasharray="none" height="503" stroke="none"/>
<rect x="554" y="63" clip-path="url(#clipPath1)" fill="none" width="9" stroke-dasharray="none" height="503"/>
<rect x="539" y="63" clip-path="url(#clipPath1)" fill="rgb(169,169,169)" width="9" stroke-dasharray="none" height="503" stroke="none"/>
<rect x="539" y="63" clip-path="url(#clipPath1)" fill="none" width="9" stroke-dasharray="none" height="503"/>
<rect x="525" y="63" clip-path="url(#clipPath1)" fill="green" width="9" stroke-dasharray="none" height="503" stroke="none"/>
<rect x="525" y="63" clip-path="url(#clipPath1)" fill="none" width="9" stroke-dasharray="none" height="503"/>
<rect x="511" y="60" clip-path="url(#clipPath1)" fill="rgb(255,165,0)" width="9" stroke-dasharray="none" height="506" stroke="none"/>
<rect x="511" y="60" clip-path="url(#clipPath1)" fill="none" width="9" stroke-dasharray="none" height="506"/>
<rect x="497" y="60" clip-path="url(#clipPath1)" fill="rgb(0,100,0)" width="9" stroke-dasharray="none" height="506" stroke="none"/>
<rect x="497" y="60" clip-path="url(#clipPath1)" fill="none" width="9" stroke-dasharray="none" height="506"/>
<rect x="482" y="60" clip-path="url(#clipPath1)" fill="rgb(238,0,0)" width="9" stroke-dasharray="none" height="506" stroke="none"/>
<rect x="482" y="60" clip-path="url(#clipPath1)" fill="none" width="9" stroke-dasharray="none" height="506"/>
<rect x="468" y="60" clip-path="url(#clipPath1)" fill="rgb(0,0,139)" width="9" stroke-dasharray="none" height="506" stroke="none"/>
<rect x="468" y="60" clip-path="url(#clipPath1)" fill="none" width="9" stroke-dasharray="none" height="506"/>
<rect x="431" y="63" clip-path="url(#clipPath1)" fill="teal" width="9" stroke-dasharray="none" height="503" stroke="none"/>
<rect x="431" y="63" clip-path="url(#clipPath1)" fill="none" width="9" stroke-dasharray="none" height="503"/>
<rect x="417" y="63" clip-path="url(#clipPath1)" fill="rgb(160,0,0)" width="9" stroke-dasharray="none" height="503" stroke="none"/>
<rect x="417" y="63" clip-path="url(#clipPath1)" fill="none" width="9" stroke-dasharray="none" height="503"/>
<rect x="403" y="63" clip-path="url(#clipPath1)" fill="rgb(169,169,169)" width="9" stroke-dasharray="none" height="503" stroke="none"/>
<rect x="403" y="63" clip-path="url(#clipPath1)" fill="none" width="9" stroke-dasharray="none" height="503"/>
<rect x="389" y="63" clip-path="url(#clipPath1)" fill="green" width="9" stroke-dasharray="none" height="503" stroke="none"/>
<rect x="389" y="63" clip-path="url(#clipPath1)" fill="none" width="9" stroke-dasharray="none" height="503"/>
<rect x="374" y="60" clip-path="url(#clipPath1)" fill="rgb(255,165,0)" width="9" stroke-dasharray="none" height="506" stroke="none"/>
<rect x="374" y="60" clip-path="url(#clipPath1)" fill="none" width="9" stroke-dasharray="none" height="506"/>
<rect x="360" y="60" clip-path="url(#clipPath1)" fill="rgb(0,100,0)" width="9" stroke-dasharray="none" height="506" stroke="none"/>
<rect x="360" y="60" clip-path="url(#clipPath1)" fill="none" width="9" stroke-dasharray="none" height="506"/>
<rect x="346" y="60" clip-path="url(#clipPath1)" fill="rgb(238,0,0)" width="9" stroke-dasharray="none" height="506" stroke="none"/>
<rect x="346" y="60" clip-path="url(#clipPath1)" fill="none" width="9" stroke-dasharray="none" height="506"/>
<rect x="332" y="60" clip-path="url(#clipPath1)" fill="rgb(0,0,139)" width="9" stroke-dasharray="none" height="506" stroke="none"/>
<rect x="332" y="60" clip-path="url(#clipPath1)" fill="none" width="9" stroke-dasharray="none" height="506"/>
<rect x="295" y="63" clip-path="url(#clipPath1)" fill="teal" width="9" stroke-dasharray="none" height="503" stroke="none"/>
<rect x="295" y="63" clip-path="url(#clipPath1)" fill="none" width="9" stroke-dasharray="none" height="503"/>
<rect x="281" y="63" clip-path="url(#clipPath1)" fill="rgb(160,0,0)" width="9" stroke-dasharray="none" height="503" stroke="none"/>
<rect x="281" y="63" clip-path="url(#clipPath1)" fill="none" width="9" stroke-dasharray="none" height="503"/>
<rect x="267" y="63" clip-path="url(#clipPath1)" fill="rgb(169,169,169)" width="9" stroke-dasharray="none" height="503" stroke="none"/>
<rect x="267" y="63" clip-path="url(#clipPath1)" fill="none" width="9" stroke-dasharray="none" height="503"/>
<rect x="252" y="63" clip-path="url(#clipPath1)" fill="green" width="9" stroke-dasharray="none" height="503" stroke="none"/>
<rect x="252" y="63" clip-path="url(#clipPath1)" fill="none" width="9" stroke-dasharray="none" height="503"/>
<rect x="238" y="60" clip-path="url(#clipPath1)" fill="rgb(255,165,0)" width="9" stroke-dasharray="none" height="506" stroke="none"/>
<rect x="238" y="60" clip-path="url(#clipPath1)" fill="none" width="9" stroke-dasharray="none" height="506"/>
<rect x="224" y="60" clip-path="url(#clipPath1)" fill="rgb(0,100,0)" width="9" stroke-dasharray="none" height="506" stroke="none"/>
<rect x="224" y="60" clip-path="url(#clipPath1)" fill="none" width="9" stroke-dasharray="none" height="506"/>
<rect x="210" y="60" clip-path="url(#clipPath1)" fill="rgb(238,0,0)" width="9" stroke-dasharray="none" height="506" stroke="none"/>
<rect x="210" y="60" clip-path="url(#clipPath1)" fill="none" width="9" stroke-dasharray="none" height="506"/>
<rect x="195" y="60" clip-path="url(#clipPath1)" fill="rgb(0,0,139)" width="9" stroke-dasharray="none" height="506" stroke="none"/>
<rect x="195" y="60" clip-path="url(#clipPath1)" fill="none" width="9" stroke-dasharray="none" height="506"/>
<rect x="159" y="63" clip-path="url(#clipPath1)" fill="teal" width="9" stroke-dasharray="none" height="503" stroke="none"/>
<rect x="159" y="63" clip-path="url(#clipPath1)" fill="none" width="9" stroke-dasharray="none" height="503"/>
<rect x="144" y="63" clip-path="url(#clipPath1)" fill="rgb(160,0,0)" width="9" stroke-dasharray="none" height="503" stroke="none"/>
<rect x="144" y="63" clip-path="url(#clipPath1)" fill="none" width="9" stroke-dasharray="none" height="503"/>
<rect x="130" y="63" clip-path="url(#clipPath1)" fill="rgb(169,169,169)" width="9" stroke-dasharray="none" height="503" stroke="none"/>
<rect x="130" y="63" clip-path="url(#clipPath1)" fill="none" width="9" stroke-dasharray="none" height="503"/>
<rect x="116" y="63" clip-path="url(#clipPath1)" fill="green" width="9" stroke-dasharray="none" height="503" stroke="none"/>
<rect x="116" y="63" clip-path="url(#clipPath1)" fill="none" width="9" stroke-dasharray="none" height="503"/>
<rect x="102" y="60" clip-path="url(#clipPath1)" fill="rgb(255,165,0)" width="9" stroke-dasharray="none" height="506" stroke="none"/>
<rect x="102" y="60" clip-path="url(#clipPath1)" fill="none" width="9" stroke-dasharray="none" height="506"/>
<rect x="87" y="60" clip-path="url(#clipPath1)" fill="rgb(0,100,0)" width="9" stroke-dasharray="none" height="506" stroke="none"/>
<rect x="87" y="60" clip-path="url(#clipPath1)" fill="none" width="9" stroke-dasharray="none" height="506"/>
<rect x="73" y="60" clip-path="url(#clipPath1)" fill="rgb(238,0,0)" width="9" stroke-dasharray="none" height="506" stroke="none"/>
<rect x="73" y="60" clip-path="url(#clipPath1)" fill="none" width="9" stroke-dasharray="none" height="506"/>
<rect x="59" y="60" clip-path="url(#clipPath1)" fill="rgb(0,0,139)" width="9" stroke-dasharray="none" height="506" stroke="none"/>
<rect x="59" y="60" clip-path="url(#clipPath1)" fill="none" width="9" stroke-dasharray="none" height="506"/>
<rect x="50" y="10" clip-path="url(#clipPath2)" fill="none" width="1492" stroke-dasharray="none" height="557" stroke="black"/>
<line clip-path="url(#clipPath2)" fill="none" x1="51" x2="1541" y1="567" y2="567" stroke-dasharray="none"/>
</g>
<g text-rendering="geometricPrecision" font-size="13" stroke-linecap="butt">
<line clip-path="url(#clipPath2)" fill="none" x1="48" x2="48" y1="10" y2="567"/>
<line clip-path="url(#clipPath2)" fill="none" x1="1544" x2="1544" y1="10" y2="567"/>
<line clip-path="url(#clipPath2)" fill="none" x1="44" x2="48" y1="567" y2="567"/>
<line clip-path="url(#clipPath2)" fill="none" x1="1548" x2="1544" y1="567" y2="567"/>
<text font-size="11" x="38" y="572" clip-path="url(#clipPath2)" stroke="none" xml:space="preserve">0</text>
<text font-size="11" x="1551" y="572" clip-path="url(#clipPath2)" stroke="none" xml:space="preserve">0</text>
<line clip-path="url(#clipPath2)" fill="none" x1="46" x2="48" y1="553" y2="553"/>
<line clip-path="url(#clipPath2)" fill="none" x1="1546" x2="1544" y1="553" y2="553"/>
<line clip-path="url(#clipPath2)" fill="none" x1="46" x2="48" y1="539" y2="539"/>
<line clip-path="url(#clipPath2)" fill="none" x1="1546" x2="1544" y1="539" y2="539"/>
<line clip-path="url(#clipPath2)" fill="none" x1="46" x2="48" y1="525" y2="525"/>
<line clip-path="url(#clipPath2)" fill="none" x1="1546" x2="1544" y1="525" y2="525"/>
<line clip-path="url(#clipPath2)" fill="none" x1="46" x2="48" y1="512" y2="512"/>
<line clip-path="url(#clipPath2)" fill="none" x1="1546" x2="1544" y1="512" y2="512"/>
<line clip-path="url(#clipPath2)" fill="none" x1="44" x2="48" y1="498" y2="498"/>
<line clip-path="url(#clipPath2)" fill="none" x1="1548" x2="1544" y1="498" y2="498"/>
<text font-size="11" x="18" y="503" clip-path="url(#clipPath2)" stroke="none" xml:space="preserve">50000</text>
<text font-size="11" x="1551" y="503" clip-path="url(#clipPath2)" stroke="none" xml:space="preserve">50000</text>
<line clip-path="url(#clipPath2)" fill="none" x1="46" x2="48" y1="484" y2="484"/>
<line clip-path="url(#clipPath2)" fill="none" x1="1546" x2="1544" y1="484" y2="484"/>
<line clip-path="url(#clipPath2)" fill="none" x1="46" x2="48" y1="470" y2="470"/>
<line clip-path="url(#clipPath2)" fill="none" x1="1546" x2="1544" y1="470" y2="470"/>
<line clip-path="url(#clipPath2)" fill="none" x1="46" x2="48" y1="457" y2="457"/>
<line clip-path="url(#clipPath2)" fill="none" x1="1546" x2="1544" y1="457" y2="457"/>
<line clip-path="url(#clipPath2)" fill="none" x1="46" x2="48" y1="443" y2="443"/>
<line clip-path="url(#clipPath2)" fill="none" x1="1546" x2="1544" y1="443" y2="443"/>
<line clip-path="url(#clipPath2)" fill="none" x1="44" x2="48" y1="429" y2="429"/>
<line clip-path="url(#clipPath2)" fill="none" x1="1548" x2="1544" y1="429" y2="429"/>
<text font-size="11" x="13" y="434" clip-path="url(#clipPath2)" stroke="none" xml:space="preserve">100000</text>
<text font-size="11" x="1551" y="434" clip-path="url(#clipPath2)" stroke="none" xml:space="preserve">100000</text>
<line clip-path="url(#clipPath2)" fill="none" x1="46" x2="48" y1="415" y2="415"/>
<line clip-path="url(#clipPath2)" fill="none" x1="1546" x2="1544" y1="415" y2="415"/>
<line clip-path="url(#clipPath2)" fill="none" x1="46" x2="48" y1="402" y2="402"/>
<line clip-path="url(#clipPath2)" fill="none" x1="1546" x2="1544" y1="402" y2="402"/>
<line clip-path="url(#clipPath2)" fill="none" x1="46" x2="48" y1="388" y2="388"/>
<line clip-path="url(#clipPath2)" fill="none" x1="1546" x2="1544" y1="388" y2="388"/>
<line clip-path="url(#clipPath2)" fill="none" x1="46" x2="48" y1="374" y2="374"/>
<line clip-path="url(#clipPath2)" fill="none" x1="1546" x2="1544" y1="374" y2="374"/>
<line clip-path="url(#clipPath2)" fill="none" x1="44" x2="48" y1="361" y2="361"/>
<line clip-path="url(#clipPath2)" fill="none" x1="1548" x2="1544" y1="361" y2="361"/>
<text font-size="11" x="13" y="366" clip-path="url(#clipPath2)" stroke="none" xml:space="preserve">150000</text>
<text font-size="11" x="1551" y="366" clip-path="url(#clipPath2)" stroke="none" xml:space="preserve">150000</text>
<line clip-path="url(#clipPath2)" fill="none" x1="46" x2="48" y1="347" y2="347"/>
<line clip-path="url(#clipPath2)" fill="none" x1="1546" x2="1544" y1="347" y2="347"/>
<line clip-path="url(#clipPath2)" fill="none" x1="46" x2="48" y1="333" y2="333"/>
<line clip-path="url(#clipPath2)" fill="none" x1="1546" x2="1544" y1="333" y2="333"/>
<line clip-path="url(#clipPath2)" fill="none" x1="46" x2="48" y1="319" y2="319"/>
<line clip-path="url(#clipPath2)" fill="none" x1="1546" x2="1544" y1="319" y2="319"/>
<line clip-path="url(#clipPath2)" fill="none" x1="46" x2="48" y1="306" y2="306"/>
<line clip-path="url(#clipPath2)" fill="none" x1="1546" x2="1544" y1="306" y2="306"/>
<line clip-path="url(#clipPath2)" fill="none" x1="44" x2="48" y1="292" y2="292"/>
<line clip-path="url(#clipPath2)" fill="none" x1="1548" x2="1544" y1="292" y2="292"/>
<text font-size="11" x="13" y="297" clip-path="url(#clipPath2)" stroke="none" xml:space="preserve">200000</text>
<text font-size="11" x="1551" y="297" clip-path="url(#clipPath2)" stroke="none" xml:space="preserve">200000</text>
<line clip-path="url(#clipPath2)" fill="none" x1="46" x2="48" y1="278" y2="278"/>
<line clip-path="url(#clipPath2)" fill="none" x1="1546" x2="1544" y1="278" y2="278"/>
<line clip-path="url(#clipPath2)" fill="none" x1="46" x2="48" y1="264" y2="264"/>
<line clip-path="url(#clipPath2)" fill="none" x1="1546" x2="1544" y1="264" y2="264"/>
<line clip-path="url(#clipPath2)" fill="none" x1="46" x2="48" y1="251" y2="251"/>
<line clip-path="url(#clipPath2)" fill="none" x1="1546" x2="1544" y1="251" y2="251"/>
<line clip-path="url(#clipPath2)" fill="none" x1="46" x2="48" y1="237" y2="237"/>
<line clip-path="url(#clipPath2)" fill="none" x1="1546" x2="1544" y1="237" y2="237"/>
<line clip-path="url(#clipPath2)" fill="none" x1="44" x2="48" y1="223" y2="223"/>
<line clip-path="url(#clipPath2)" fill="none" x1="1548" x2="1544" y1="223" y2="223"/>
<text font-size="11" x="13" y="228" clip-path="url(#clipPath2)" stroke="none" xml:space="preserve">250000</text>
<text font-size="11" x="1551" y="228" clip-path="url(#clipPath2)" stroke="none" xml:space="preserve">250000</text>
<line clip-path="url(#clipPath2)" fill="none" x1="46" x2="48" y1="210" y2="210"/>
<line clip-path="url(#clipPath2)" fill="none" x1="1546" x2="1544" y1="210" y2="210"/>
<line clip-path="url(#clipPath2)" fill="none" x1="46" x2="48" y1="196" y2="196"/>
<line clip-path="url(#clipPath2)" fill="none" x1="1546" x2="1544" y1="196" y2="196"/>
<line clip-path="url(#clipPath2)" fill="none" x1="46" x2="48" y1="182" y2="182"/>
<line clip-path="url(#clipPath2)" fill="none" x1="1546" x2="1544" y1="182" y2="182"/>
<line clip-path="url(#clipPath2)" fill="none" x1="46" x2="48" y1="168" y2="168"/>
<line clip-path="url(#clipPath2)" fill="none" x1="1546" x2="1544" y1="168" y2="168"/>
<line clip-path="url(#clipPath2)" fill="none" x1="44" x2="48" y1="155" y2="155"/>
<line clip-path="url(#clipPath2)" fill="none" x1="1548" x2="1544" y1="155" y2="155"/>
<text font-size="11" x="13" y="160" clip-path="url(#clipPath2)" stroke="none" xml:space="preserve">300000</text>
<text font-size="11" x="1551" y="160" clip-path="url(#clipPath2)" stroke="none" xml:space="preserve">300000</text>
<line clip-path="url(#clipPath2)" fill="none" x1="46" x2="48" y1="141" y2="141"/>
<line clip-path="url(#clipPath2)" fill="none" x1="1546" x2="1544" y1="141" y2="141"/>
<line clip-path="url(#clipPath2)" fill="none" x1="46" x2="48" y1="127" y2="127"/>
<line clip-path="url(#clipPath2)" fill="none" x1="1546" x2="1544" y1="127" y2="127"/>
<line clip-path="url(#clipPath2)" fill="none" x1="46" x2="48" y1="113" y2="113"/>
<line clip-path="url(#clipPath2)" fill="none" x1="1546" x2="1544" y1="113" y2="113"/>
<line clip-path="url(#clipPath2)" fill="none" x1="46" x2="48" y1="100" y2="100"/>
<line clip-path="url(#clipPath2)" fill="none" x1="1546" x2="1544" y1="100" y2="100"/>
<line clip-path="url(#clipPath2)" fill="none" x1="44" x2="48" y1="86" y2="86"/>
<line clip-path="url(#clipPath2)" fill="none" x1="1548" x2="1544" y1="86" y2="86"/>
<text font-size="11" x="13" y="91" clip-path="url(#clipPath2)" stroke="none" xml:space="preserve">350000</text>
<text font-size="11" x="1551" y="91" clip-path="url(#clipPath2)" stroke="none" xml:space="preserve">350000</text>
<line clip-path="url(#clipPath2)" fill="none" x1="46" x2="48" y1="72" y2="72"/>
<line clip-path="url(#clipPath2)" fill="none" x1="1546" x2="1544" y1="72" y2="72"/>
<line clip-path="url(#clipPath2)" fill="none" x1="46" x2="48" y1="59" y2="59"/>
<line clip-path="url(#clipPath2)" fill="none" x1="1546" x2="1544" y1="59" y2="59"/>
<line clip-path="url(#clipPath2)" fill="none" x1="46" x2="48" y1="45" y2="45"/>
<line clip-path="url(#clipPath2)" fill="none" x1="1546" x2="1544" y1="45" y2="45"/>
<line clip-path="url(#clipPath2)" fill="none" x1="46" x2="48" y1="31" y2="31"/>
<line clip-path="url(#clipPath2)" fill="none" x1="1546" x2="1544" y1="31" y2="31"/>
<line clip-path="url(#clipPath2)" fill="none" x1="44" x2="48" y1="17" y2="17"/>
<line clip-path="url(#clipPath2)" fill="none" x1="1548" x2="1544" y1="17" y2="17"/>
<text font-size="11" x="13" y="22" clip-path="url(#clipPath2)" stroke="none" xml:space="preserve">400000</text>
<text font-size="11" x="1551" y="22" clip-path="url(#clipPath2)" stroke="none" xml:space="preserve">400000</text>
<line clip-path="url(#clipPath3)" fill="none" x1="59" x2="168" y1="571" y2="571"/>
<line clip-path="url(#clipPath3)" fill="none" x1="195" x2="304" y1="571" y2="571"/>
<line clip-path="url(#clipPath3)" fill="none" x1="332" x2="440" y1="571" y2="571"/>
<line clip-path="url(#clipPath3)" fill="none" x1="468" x2="577" y1="571" y2="571"/>
<line clip-path="url(#clipPath3)" fill="none" x1="605" x2="713" y1="571" y2="571"/>
<line clip-path="url(#clipPath3)" fill="none" x1="741" x2="850" y1="571" y2="571"/>
<line clip-path="url(#clipPath3)" fill="none" x1="877" x2="986" y1="571" y2="571"/>
<line clip-path="url(#clipPath3)" fill="none" x1="1014" x2="1122" y1="571" y2="571"/>
<line clip-path="url(#clipPath3)" fill="none" x1="1150" x2="1259" y1="571" y2="571"/>
<line clip-path="url(#clipPath3)" fill="none" x1="1287" x2="1395" y1="571" y2="571"/>
<line clip-path="url(#clipPath3)" fill="none" x1="1423" x2="1532" y1="571" y2="571"/>
<text font-size="11" x="0" y="11" clip-path="url(#clipPath3)" stroke="none" xml:space="preserve"/>
<text font-size="11" x="59" y="583" clip-path="url(#clipPath3)" stroke="none" xml:space="preserve">MyNetwork.node[0].batteryStats</text>
<text font-size="11" x="195" y="583" clip-path="url(#clipPath3)" stroke="none" xml:space="preserve">MyNetwork.node[1].batteryStats</text>
<text font-size="11" x="332" y="583" clip-path="url(#clipPath3)" stroke="none" xml:space="preserve">MyNetwork.node[2].batteryStats</text>
<text font-size="11" x="468" y="583" clip-path="url(#clipPath3)" stroke="none" xml:space="preserve">MyNetwork.node[3].batteryStats</text>
<text font-size="11" x="605" y="583" clip-path="url(#clipPath3)" stroke="none" xml:space="preserve">MyNetwork.node[4].batteryStats</text>
<text font-size="11" x="741" y="583" clip-path="url(#clipPath3)" stroke="none" xml:space="preserve">MyNetwork.node[5].batteryStats</text>
<text font-size="11" x="877" y="583" clip-path="url(#clipPath3)" stroke="none" xml:space="preserve">MyNetwork.node[6].batteryStats</text>
<text font-size="11" x="1014" y="583" clip-path="url(#clipPath3)" stroke="none" xml:space="preserve">MyNetwork.node[7].batteryStats</text>
<text font-size="11" x="1150" y="583" clip-path="url(#clipPath3)" stroke="none" xml:space="preserve">MyNetwork.node[8].batteryStats</text>
<text font-size="11" x="1287" y="583" clip-path="url(#clipPath3)" stroke="none" xml:space="preserve">MyNetwork.node[9].batteryStats</text>
<text font-size="11" x="1423" y="583" clip-path="url(#clipPath3)" stroke="none" xml:space="preserve">MyNetwork.node[10].batteryStats</text>
<text xml:space="preserve" x="0" y="13" clip-path="url(#clipPath3)" stroke="none"/>
<text xml:space="preserve" x="796" y="601" clip-path="url(#clipPath3)" stroke="none"/>
</g>
</g>
</svg>
